<?xml version="1.0" encoding="UTF-8"?>
<svg xmlns="http://www.w3.org/2000/svg" viewBox="0 0 64 64">
  <path fill="#d32f2f" d="M33.5 6.2c.5 1.7 1.5 4.3 2.7 6.1 1.1 1.7 2.7 2.4 4.6 2.1 1.7-.3 4.4-1.2 6.1-1.8-.6 2.1-2 5.8-2.6 7.6-.7 2.2.1 3.8 2.1 4.9 1.5.9 4.3 1.9 6 2.5-1.7 1.3-5 3.8-6.6 5.2-1.7 1.5-1.9 3.3-.9 5.2.8 1.5 2.6 4.2 3.6 5.8-2.1-.4-5.9-1.3-7.8-1.8-2.1-.5-3.5.2-4.5 2.1-.8 1.5-1.8 4.4-2.2 6.1-1.1-1.6-2.8-4.4-3.7-5.9-1.1-1.8-2.7-2.4-4.6-2-1.7.3-4.4 1.2-6.2 1.8.8-1.8 2.1-4.8 2.8-6.5.8-2.1.1-3.8-1.9-5.1-1.4-.9-4.4-2.2-6.1-2.9 1.8-1.2 4.9-3.3 6.6-4.7 1.8-1.5 2.1-3.3 1.1-5.3-.8-1.6-2.4-4.4-3.3-6 2 .5 5.6 1.6 7.5 2.1 2.2.6 3.8-.1 5-2 1-1.5 2.2-4.1 2.8-5.8 0 0 .3-.9 1.6-.9s1.6.9 1.6.9z"/>
</svg>


